<?xml version="1.0" encoding="UTF-8" standalone="no"?>
<!-- Created with Inkscape (http://www.inkscape.org/) -->
<svg
   xmlns:dc="http://purl.org/dc/elements/1.1/"
   xmlns:cc="http://web.resource.org/cc/"
   xmlns:rdf="http://www.w3.org/1999/02/22-rdf-syntax-ns#"
   xmlns:svg="http://www.w3.org/2000/svg"
   xmlns="http://www.w3.org/2000/svg"
   xmlns:xlink="http://www.w3.org/1999/xlink"
   xmlns:sodipodi="http://sodipodi.sourceforge.net/DTD/sodipodi-0.dtd"
   xmlns:inkscape="http://www.inkscape.org/namespaces/inkscape"
   width="744.09448819"
   height="1052.3622047"
   id="svg11815"
   sodipodi:version="0.32"
   inkscape:version="0.45.1"
   sodipodi:docbase="/home/gloomy/Develop/OSSO/lines-0.2/svg"
   sodipodi:docname="music.svg"
   inkscape:output_extension="org.inkscape.output.svg.inkscape">
  <defs
     id="defs11817">
    <linearGradient
       id="linearGradient12800">
      <stop
         style="stop-color:#f4f371;stop-opacity:1;"
         offset="0"
         id="stop12802" />
      <stop
         style="stop-color:#79510f;stop-opacity:1;"
         offset="1"
         id="stop12804" />
    </linearGradient>
    <filter
       inkscape:collect="always"
       x="-0.18560916"
       width="1.3712183"
       y="-0.11763012"
       height="1.2352602"
       id="filter7873">
      <feGaussianBlur
         inkscape:collect="always"
         stdDeviation="3.5119785"
         id="feGaussianBlur7875" />
    </filter>
    <radialGradient
       inkscape:collect="always"
       xlink:href="#linearGradient12800"
       id="radialGradient12808"
       cx="49.170441"
       cy="1028.7559"
       fx="49.170441"
       fy="1028.7559"
       r="13.010334"
       gradientTransform="matrix(1.0736374e-5,1.9948263,-2.1266014,1.136048e-5,2254.5957,841.27566)"
       gradientUnits="userSpaceOnUse" />
    <filter
       inkscape:collect="always"
       id="filter3182">
      <feGaussianBlur
         inkscape:collect="always"
         stdDeviation="0.14303262"
         id="feGaussianBlur3184" />
    </filter>
    <filter
       inkscape:collect="always"
       x="-0.22346558"
       width="1.4469312"
       y="-0.11019073"
       height="1.2203815"
       id="filter4122">
      <feGaussianBlur
         inkscape:collect="always"
         stdDeviation="1.2675133"
         id="feGaussianBlur4124" />
    </filter>
    <filter
       inkscape:collect="always"
       x="-0.1476"
       width="1.2952"
       y="-0.1476"
       height="1.2952"
       id="filter8098">
      <feGaussianBlur
         inkscape:collect="always"
         stdDeviation="2.214"
         id="feGaussianBlur8100" />
    </filter>
    <linearGradient
       inkscape:collect="always"
       xlink:href="#linearGradient12800"
       id="linearGradient2194"
       gradientUnits="userSpaceOnUse"
       gradientTransform="matrix(0.8886724,0,0,0.8946442,46.84705,108.42707)"
       x1="100.07429"
       y1="1021.3737"
       x2="100.07429"
       y2="1051.8098" />
    <linearGradient
       inkscape:collect="always"
       xlink:href="#linearGradient12800"
       id="linearGradient2196"
       gradientUnits="userSpaceOnUse"
       gradientTransform="matrix(0.8886724,0,0,0.8946442,46.84705,108.42707)"
       x1="90.214287"
       y1="1006.8622"
       x2="100.35714"
       y2="1044.8623" />
    <filter
       inkscape:collect="always"
       x="-0.040378044"
       width="1.0807561"
       y="-0.1464758"
       height="1.2929516"
       id="filter5274">
      <feGaussianBlur
         inkscape:collect="always"
         stdDeviation="1.8628964"
         id="feGaussianBlur5276" />
    </filter>
    <linearGradient
       inkscape:collect="always"
       xlink:href="#linearGradient12800"
       id="linearGradient5302"
       x1="81.214142"
       y1="1043.2328"
       x2="3.2966363"
       y2="1051.3539"
       gradientUnits="userSpaceOnUse" />
  </defs>
  <sodipodi:namedview
     id="base"
     pagecolor="#ffffff"
     bordercolor="#666666"
     borderopacity="1.0"
     gridtolerance="10000"
     guidetolerance="10"
     objecttolerance="10"
     inkscape:pageopacity="0.0"
     inkscape:pageshadow="2"
     inkscape:zoom="2.8"
     inkscape:cx="145.86077"
     inkscape:cy="91.000297"
     inkscape:document-units="px"
     inkscape:current-layer="layer1"
     inkscape:window-width="914"
     inkscape:window-height="789"
     inkscape:window-x="31"
     inkscape:window-y="79" />
  <metadata
     id="metadata11820">
    <rdf:RDF>
      <cc:Work
         rdf:about="">
        <dc:format>image/svg+xml</dc:format>
        <dc:type
           rdf:resource="http://purl.org/dc/dcmitype/StillImage" />
      </cc:Work>
    </rdf:RDF>
  </metadata>
  <g
     inkscape:label="Layer 1"
     inkscape:groupmode="layer"
     id="layer1">
    <path
       style="opacity:0.7625;fill:#000000;fill-opacity:1;fill-rule:nonzero;stroke:none;stroke-width:1;stroke-linejoin:miter;stroke-miterlimit:4;stroke-opacity:1;filter:url(#filter7873)"
       d="M 52.59375,314.53125 C 45.409337,317.12686 38.935585,320.45599 31.254588,323.49195 C 25.66674,326.07062 18.786558,326.22799 21.34375,334.03125 C 21.205399,345.65819 21.389361,356.34475 21.34375,368.1875 C 15.357017,369.37603 7.119101,376.21208 11.28125,382.75 C 17.511889,388.23673 28.074076,382.47696 30.5625,375.59375 C 31.215656,366.46924 30.222907,356.93645 30.625,347.65625 C 28.686683,340.13971 39.01974,340.77346 43.529376,337.53947 C 48.839684,335.77088 44.681245,348.25877 46,352.5 C 47.591508,357.07489 44.072218,357.36308 41,358.875 C 35.694681,360.99538 30.879364,370.2736 37.9375,373.3125 C 44.543598,375.19475 52.223195,370.87799 54.78125,364.65625 C 56.023249,357.0545 54.956522,347.14402 55.3125,338.65625 C 55.437856,330.19914 55.035862,321.72666 55.5625,313.28125 C 54.572917,313.69792 53.583333,314.11458 52.59375,314.53125 z "
       id="path6892"
       transform="matrix(0.6128435,0,0,0.4581078,3.0646021,794.59146)"
       inkscape:export-filename="/home/gloomy/Develop/OSSO/lines-0.1-2/gfx/music_off.png"
       inkscape:export-xdpi="90"
       inkscape:export-ydpi="90" />
    <path
       style="opacity:1;fill:#000000;fill-opacity:1;fill-rule:nonzero;stroke:#ffffff;stroke-width:0.69999999;stroke-linejoin:miter;stroke-miterlimit:4;stroke-dasharray:none;stroke-opacity:1"
       d="M 35.775122,939.52533 L 32.730062,940.48453 L 32.481092,940.48453 L 32.481092,940.55613 L 17.638792,945.22303 L 17.638792,945.32323 L 17.370672,945.32323 L 17.370672,951.63653 L 17.332362,952.12333 L 17.370672,952.10903 L 17.370672,964.03413 C 16.314822,964.10893 15.125612,964.38473 13.980882,964.87873 C 11.270932,966.04833 9.8159921,967.95343 10.725152,969.13053 C 11.634302,970.30763 14.564962,970.31443 17.274912,969.14483 C 19.900172,968.01183 21.345512,966.19053 20.607252,965.00763 L 20.607252,951.09253 L 32.481092,947.37043 L 32.481092,958.92333 C 31.363852,958.96773 30.079382,959.24843 28.842332,959.78233 C 26.132382,960.95183 24.677452,962.85703 25.586602,964.03413 C 26.495752,965.21123 29.426422,965.21793 32.136362,964.04843 C 34.213402,963.15203 35.555222,961.82863 35.660212,960.72713 L 35.736822,960.72713 L 35.736822,940.48453 L 35.698522,940.48453 L 35.775122,939.52533 z M 32.481092,943.16153 L 32.481092,944.76493 L 20.607252,948.50143 L 20.607252,946.89803 L 32.481092,943.16153 z "
       id="rect2294"
       inkscape:export-filename="/home/gloomy/Develop/OSSO/lines-0.1-2/gfx/music_off.png"
       inkscape:export-xdpi="90"
       inkscape:export-ydpi="90" />
    <path
       style="opacity:0.7625;fill:#000000;fill-opacity:1;fill-rule:nonzero;stroke:none;stroke-width:1;stroke-linejoin:miter;stroke-miterlimit:4;stroke-opacity:1;filter:url(#filter7873)"
       d="M 52.59375,314.53125 C 45.409337,317.12686 38.935585,320.45599 31.254588,323.49195 C 25.66674,326.07062 18.786558,326.22799 21.34375,334.03125 C 21.205399,345.65819 21.389361,356.34475 21.34375,368.1875 C 15.357017,369.37603 7.119101,376.21208 11.28125,382.75 C 17.511889,388.23673 28.074076,382.47696 30.5625,375.59375 C 31.215656,366.46924 30.222907,356.93645 30.625,347.65625 C 28.686683,340.13971 39.01974,340.77346 43.529376,337.53947 C 48.839684,335.77088 44.681245,348.25877 46,352.5 C 47.591508,357.07489 44.072218,357.36308 41,358.875 C 35.694681,360.99538 30.879364,370.2736 37.9375,373.3125 C 44.543598,375.19475 52.223195,370.87799 54.78125,364.65625 C 56.023249,357.0545 54.956522,347.14402 55.3125,338.65625 C 55.437856,330.19914 55.035862,321.72666 55.5625,313.28125 C 54.572917,313.69792 53.583333,314.11458 52.59375,314.53125 z "
       id="path11827"
       transform="matrix(0.6128435,0,0,0.4581078,46.792457,794.78996)"
       inkscape:export-filename="/home/gloomy/Develop/OSSO/lines-0.1-2/gfx/music_on.png"
       inkscape:export-xdpi="90"
       inkscape:export-ydpi="90" />
    <path
       style="opacity:1;fill:url(#radialGradient12808);fill-opacity:1;fill-rule:nonzero;stroke:#ffffff;stroke-width:0.69999999;stroke-linejoin:miter;stroke-miterlimit:4;stroke-dasharray:none;stroke-opacity:1;filter:url(#filter3182)"
       d="M 79.502977,939.72383 L 76.457917,940.68303 L 76.208947,940.68303 L 76.208947,940.75463 L 61.366647,945.42153 L 61.366647,945.52173 L 61.098527,945.52173 L 61.098527,951.83503 L 61.060217,952.32183 L 61.098527,952.30753 L 61.098527,964.23263 C 60.042677,964.30743 58.853467,964.58323 57.708737,965.07723 C 54.998787,966.24683 53.543847,968.15193 54.453007,969.32903 C 55.362157,970.50613 58.292817,970.51293 61.002767,969.34333 C 63.628027,968.21033 65.073367,966.38903 64.335107,965.20613 L 64.335107,951.29103 L 76.208947,947.56893 L 76.208947,959.12183 C 75.091707,959.16623 73.807237,959.44693 72.570187,959.98083 C 69.860237,961.15033 68.405307,963.05553 69.314457,964.23263 C 70.223607,965.40973 73.154277,965.41643 75.864217,964.24693 C 77.941257,963.35053 79.283077,962.02713 79.388067,960.92563 L 79.464677,960.92563 L 79.464677,940.68303 L 79.426377,940.68303 L 79.502977,939.72383 z M 76.208947,943.36003 L 76.208947,944.96343 L 64.335107,948.69993 L 64.335107,947.09653 L 76.208947,943.36003 z "
       id="path11829"
       inkscape:export-filename="/home/gloomy/Develop/OSSO/lines-0.1-2/gfx/music_on.png"
       inkscape:export-xdpi="90"
       inkscape:export-ydpi="90" />
    <rect
       style="opacity:0.76000001;fill:#999999;fill-opacity:1;fill-rule:nonzero;stroke:#000000;stroke-width:4.85535955;stroke-linejoin:miter;stroke-miterlimit:4;stroke-dasharray:none;stroke-opacity:0.01214576"
       id="rect8042"
       width="180.57321"
       height="94.144638"
       x="249.71339"
       y="877.07556" />
    <g
       id="g2188"
       transform="translate(-46.352103,-110.05401)">
      <path
         inkscape:export-ydpi="90"
         inkscape:export-xdpi="90"
         inkscape:export-filename="/home/gloomy/Develop/OSSO/lines-0.1-2/gfx/info_off.png"
         transform="matrix(0.8886723,0,0,0.8946442,9.1327703,110.76593)"
         id="path8044"
         d="M 115.00001,1033.4339 C 115.00001,1041.7139 108.28001,1048.4339 100.00001,1048.4339 C 91.720004,1048.4339 85.000004,1041.7139 85.000004,1033.4339 C 85.000004,1025.1539 91.720004,1018.4339 100.00001,1018.4339 C 108.28001,1018.4339 115.00001,1025.1539 115.00001,1033.4339 z "
         style="opacity:0.76000001;fill:none;fill-opacity:1;fill-rule:nonzero;stroke:#000000;stroke-width:6;stroke-linejoin:miter;stroke-miterlimit:4;stroke-dasharray:none;stroke-opacity:1;filter:url(#filter8098)" />
      <path
         inkscape:export-ydpi="90"
         inkscape:export-xdpi="90"
         inkscape:export-filename="/home/gloomy/Develop/OSSO/lines-0.1-2/gfx/info_off.png"
         transform="matrix(0.8886723,0,0,0.8946442,9.1327703,110.76593)"
         id="path3145"
         d="M 101.65179,1021.2994 C 99.389104,1022.8361 97.074058,1024.2705 99.120536,1026.9244 C 101.98006,1029.9618 93.972196,1029.9577 94.120536,1033.0807 C 93.142029,1039.3302 97.886031,1035.2646 94.808036,1042.6432 C 93.732207,1046.7338 98.9417,1048.235 101.40179,1045.4244 C 105.10145,1043.8089 106.89408,1041.05 106.55804,1036.862 C 100.04039,1042.2788 103.05927,1035.3238 103.99554,1031.0182 C 103.99963,1029.0665 102.4466,1027.9813 105.18304,1026.9244 C 107.35505,1026.5533 103.73793,1017.1872 101.65179,1021.2994 z "
         style="font-size:35px;font-style:italic;font-variant:normal;font-weight:normal;font-stretch:normal;text-align:start;line-height:100%;writing-mode:lr-tb;text-anchor:start;opacity:0.76000001;fill:#000000;fill-opacity:1;stroke:#ffffff;stroke-width:1px;stroke-linecap:butt;stroke-linejoin:miter;stroke-opacity:1;filter:url(#filter4122);font-family:Free Chancery" />
      <path
         inkscape:export-ydpi="90"
         inkscape:export-xdpi="90"
         inkscape:export-filename="/home/gloomy/Develop/OSSO/lines-0.1-2/gfx/info_off.png"
         id="text2169"
         d="M 99.496779,1029.7582 C 100.39878,1028.9441 100.46099,1028.8815 101.51851,1028.0673 C 101.33189,1027.6916 101.17637,1027.4411 101.11416,1027.3472 C 100.92754,1026.9714 100.89644,1026.9401 100.64761,1026.3452 C 100.5854,1026.2199 100.52319,1026.0946 100.46099,1025.938 C 100.30547,1026.0633 100.11885,1026.1886 100.02554,1026.2825 C 99.901126,1026.4077 99.652297,1026.5957 99.341262,1026.8462 C 99.185744,1026.9714 98.968019,1027.1279 98.688088,1027.3159 C 98.563674,1027.4098 98.439259,1027.5037 98.314845,1027.5664 C 98.53257,1028.2552 98.812502,1028.7563 99.496779,1029.7582 M 101.64292,1041.5943 C 98.688088,1043.1913 98.625881,1043.2226 98.221535,1043.2226 C 97.879392,1043.2226 97.661668,1042.8781 97.661668,1042.3459 C 97.661668,1042.0327 97.754978,1041.4378 97.941599,1040.7489 C 99.527883,1034.1733 99.838919,1032.9207 99.838919,1032.6703 C 99.838919,1032.4824 99.683401,1032.3571 99.465676,1032.3571 C 98.936916,1032.3571 97.101802,1033.3904 94.551315,1035.1127 L 94.489108,1035.9894 C 96.324214,1034.9874 96.479734,1034.9248 96.759665,1034.9248 C 97.008494,1034.9248 97.132908,1035.1127 97.132908,1035.4884 C 97.132908,1035.8954 97.039597,1036.3339 96.573045,1038.1187 C 95.11118,1043.5983 95.111178,1043.5983 95.111178,1044.3812 C 95.111178,1045.1327 95.422214,1045.6337 95.857663,1045.6337 C 96.386422,1045.6337 97.22622,1045.2266 98.874708,1044.1619 C 99.465676,1043.7863 100.05664,1043.4105 100.64761,1043.0034 C 100.92754,1042.8469 101.20748,1042.659 101.51851,1042.4711 L 101.64292,1041.5943"
         style="font-size:35px;font-style:italic;font-variant:normal;font-weight:normal;font-stretch:normal;text-align:start;line-height:100%;writing-mode:lr-tb;text-anchor:start;fill:#000000;fill-opacity:1;stroke:#ffffff;stroke-width:0.89165324px;stroke-linecap:butt;stroke-linejoin:miter;stroke-opacity:1;font-family:Free Chancery" />
      <path
         inkscape:export-ydpi="90"
         inkscape:export-xdpi="90"
         inkscape:export-filename="/home/gloomy/Develop/OSSO/lines-0.1-2/gfx/info_off.png"
         id="path7061"
         d="M 98.32135,1021.9013 C 90.96314,1021.9013 84.991264,1027.9134 84.991263,1035.321 C 84.991263,1042.7287 90.963142,1048.7407 98.32135,1048.7408 C 105.67955,1048.7408 111.65143,1042.7288 111.65143,1035.321 C 111.65143,1027.9134 105.67955,1021.9013 98.32135,1021.9013 z "
         style="opacity:0.76000001;fill:none;fill-opacity:1;fill-rule:nonzero;stroke:#000000;stroke-width:0.89165324;stroke-linejoin:miter;stroke-miterlimit:4;stroke-opacity:1" />
      <path
         inkscape:export-ydpi="90"
         inkscape:export-xdpi="90"
         inkscape:export-filename="/home/gloomy/Develop/OSSO/lines-0.1-2/gfx/info_off.png"
         id="path7066"
         d="M 111.64747,1035.3216 C 111.64747,1042.7292 105.67558,1048.7412 98.317388,1048.7412 C 90.959178,1048.7412 84.987301,1042.7292 84.987301,1035.3216 C 84.987301,1027.9139 90.959178,1021.9019 98.317388,1021.9019 C 105.67558,1021.9019 111.64747,1027.9139 111.64747,1035.3216 z "
         style="opacity:0.76000001;fill:none;fill-opacity:1;fill-rule:nonzero;stroke:#ffffff;stroke-width:3.56661296;stroke-linejoin:miter;stroke-miterlimit:4;stroke-opacity:0.99595139" />
      <path
         inkscape:export-ydpi="90"
         inkscape:export-xdpi="90"
         inkscape:export-filename="/home/gloomy/Develop/OSSO/lines-0.1-2/gfx/info_off.png"
         id="path5103"
         d="M 111.64747,1035.3217 C 111.64747,1042.7293 105.67558,1048.7413 98.317388,1048.7413 C 90.959176,1048.7413 84.987299,1042.7293 84.987299,1035.3217 C 84.987299,1027.914 90.959176,1021.902 98.317388,1021.902 C 105.67558,1021.902 111.64747,1027.914 111.64747,1035.3217 z "
         style="opacity:0.76000001;fill:none;fill-opacity:1;fill-rule:nonzero;stroke:#000000;stroke-width:0.89165324;stroke-linejoin:miter;stroke-miterlimit:4;stroke-opacity:1" />
    </g>
    <path
       style="opacity:0;fill:none;fill-opacity:1;fill-rule:nonzero;stroke:#000000;stroke-width:1.96364021;stroke-linejoin:miter;stroke-miterlimit:4;stroke-dasharray:none;stroke-opacity:1"
       d="M 222.71428,942.59653 L 113.71429,971.78417 L 113.71429,972.12787 L 222.71428,972.12787 L 222.71428,942.59653 z "
       id="path5292"
       inkscape:export-filename="/home/gloomy/Develop/OSSO/lines-0.1-2/gfx/vol_full.png"
       inkscape:export-xdpi="90"
       inkscape:export-ydpi="90"
       transform="matrix(0.5789386,0,0,1.0079203,-65.083592,71.784768)" />
    <path
       style="opacity:1;fill:url(#linearGradient5302);fill-opacity:1.0;fill-rule:nonzero;stroke:#ffffff;stroke-width:0.76388741;stroke-linejoin:miter;stroke-miterlimit:4;stroke-dasharray:none;stroke-opacity:1"
       d="M 63.98612,1021.2079 L 0.88180016,1050.6255 L 0.88180016,1050.9719 L 63.98612,1050.9719 L 63.98612,1021.2079 z "
       id="path5294"
       inkscape:export-filename="/home/gloomy/Develop/OSSO/lines-0.1-2/gfx/vol_full.png"
       inkscape:export-xdpi="90"
       inkscape:export-ydpi="90" />
    <path
       style="opacity:1;fill:none;fill-opacity:1;fill-rule:nonzero;stroke:#000000;stroke-width:1.96364021;stroke-linejoin:miter;stroke-miterlimit:4;stroke-dasharray:none;stroke-opacity:1;filter:url(#filter5274)"
       d="M 222.71428,942.59653 L 113.71429,971.78417 L 113.71429,972.12787 L 222.71428,972.12787 L 222.71428,942.59653 z "
       id="path5307"
       inkscape:export-filename="/home/gloomy/Develop/OSSO/lines-0.1-2/gfx/vol_empty.png"
       inkscape:export-xdpi="90"
       inkscape:export-ydpi="90"
       transform="matrix(0.5789386,0,0,1.0079203,34.399972,68.981452)" />
    <path
       style="opacity:1;fill:none;fill-opacity:1.0;fill-rule:nonzero;stroke:#ffffff;stroke-width:0.76388741;stroke-linejoin:miter;stroke-miterlimit:4;stroke-dasharray:none;stroke-opacity:1"
       d="M 163.46968,1018.4046 L 100.36536,1047.8222 L 100.36536,1048.1686 L 163.46968,1048.1686 L 163.46968,1018.4046 z "
       id="path5309"
       inkscape:export-filename="/home/gloomy/Develop/OSSO/lines-0.1-2/gfx/vol_empty.png"
       inkscape:export-xdpi="90"
       inkscape:export-ydpi="90" />
  </g>
</svg>
