<?xml version="1.0" encoding="UTF-8" standalone="no"?>
<!-- Created with Inkscape (http://www.inkscape.org/) -->
<svg
   xmlns:dc="http://purl.org/dc/elements/1.1/"
   xmlns:cc="http://web.resource.org/cc/"
   xmlns:rdf="http://www.w3.org/1999/02/22-rdf-syntax-ns#"
   xmlns:svg="http://www.w3.org/2000/svg"
   xmlns="http://www.w3.org/2000/svg"
   xmlns:xlink="http://www.w3.org/1999/xlink"
   xmlns:sodipodi="http://sodipodi.sourceforge.net/DTD/sodipodi-0.dtd"
   xmlns:inkscape="http://www.inkscape.org/namespaces/inkscape"
   width="744.09448819"
   height="1052.3622047"
   id="svg2"
   sodipodi:version="0.32"
   inkscape:version="0.45.1"
   sodipodi:docbase="/home/gloomy/Develop/OSSO/lines-0.1-2/svg"
   sodipodi:docname="tiles_brush.svg"
   inkscape:output_extension="org.inkscape.output.svg.inkscape">
  <defs
     id="defs4">
    <filter
       inkscape:collect="always"
       x="-0.010950069"
       width="1.0219001"
       y="-0.11525552"
       height="1.230511"
       id="filter20930">
      <feGaussianBlur
         inkscape:collect="always"
         stdDeviation="0.95087123"
         id="feGaussianBlur20932" />
    </filter>
    <linearGradient
       inkscape:collect="always"
       id="linearGradient18960">
      <stop
         style="stop-color:#000000;stop-opacity:1"
         offset="0"
         id="stop18962" />
      <stop
         style="stop-color:#000000;stop-opacity:0"
         offset="1"
         id="stop18964" />
    </linearGradient>
    <linearGradient
       inkscape:collect="always"
       xlink:href="#linearGradient18960"
       id="linearGradient18966"
       x1="324.44827"
       y1="884.84399"
       x2="333.1456"
       y2="801.27399"
       gradientUnits="userSpaceOnUse" />
    <filter
       inkscape:collect="always"
       id="filter21963">
      <feGaussianBlur
         inkscape:collect="always"
         stdDeviation="0.31827192"
         id="feGaussianBlur21965" />
    </filter>
    <filter
       inkscape:collect="always"
       id="filter19949">
      <feGaussianBlur
         inkscape:collect="always"
         stdDeviation="0.37335976"
         id="feGaussianBlur19951" />
    </filter>
    <filter
       inkscape:collect="always"
       x="-0.19382721"
       width="1.3876544"
       y="-0.018234611"
       height="1.0364692"
       id="filter16037">
      <feGaussianBlur
         inkscape:collect="always"
         stdDeviation="0.99148354"
         id="feGaussianBlur16039" />
    </filter>
    <filter
       inkscape:collect="always"
       id="filter15046">
      <feGaussianBlur
         inkscape:collect="always"
         stdDeviation="0.33081342"
         id="feGaussianBlur15048" />
    </filter>
    <linearGradient
       inkscape:collect="always"
       xlink:href="#linearGradient8122"
       id="linearGradient15056"
       x1="517.89545"
       y1="694.06409"
       x2="461.05884"
       y2="694.97339"
       gradientUnits="userSpaceOnUse" />
    <filter
       inkscape:collect="always"
       id="filter13078">
      <feGaussianBlur
         inkscape:collect="always"
         stdDeviation="0.5868888"
         id="feGaussianBlur13080" />
    </filter>
    <filter
       inkscape:collect="always"
       id="filter14051">
      <feGaussianBlur
         inkscape:collect="always"
         stdDeviation="0.4609046"
         id="feGaussianBlur14053" />
    </filter>
    <linearGradient
       id="linearGradient10121">
      <stop
         id="stop10123"
         offset="0"
         style="stop-color:#241c1c;stop-opacity:1" />
      <stop
         id="stop10125"
         offset="1"
         style="stop-color:#6c5353;stop-opacity:1" />
    </linearGradient>
    <linearGradient
       inkscape:collect="always"
       xlink:href="#linearGradient10121"
       id="linearGradient10119"
       x1="147.37878"
       y1="859.77734"
       x2="557.80066"
       y2="660.59583"
       gradientUnits="userSpaceOnUse" />
    <linearGradient
       inkscape:collect="always"
       id="linearGradient10101">
      <stop
         style="stop-color:#000000;stop-opacity:1"
         offset="0"
         id="stop10103" />
      <stop
         style="stop-color:#782121;stop-opacity:0;"
         offset="1"
         id="stop10105" />
    </linearGradient>
    <linearGradient
       inkscape:collect="always"
       xlink:href="#linearGradient10101"
       id="linearGradient10107"
       x1="64.628105"
       y1="604.77966"
       x2="251.50536"
       y2="505.00888"
       gradientUnits="userSpaceOnUse"
       gradientTransform="matrix(0.6210939,0,0,0.7599513,193.79437,8.7666144)" />
    <filter
       inkscape:collect="always"
       x="-0.013638374"
       width="1.0272768"
       y="-0.59613431"
       height="2.1922686"
       id="filter10091">
      <feGaussianBlur
         inkscape:collect="always"
         stdDeviation="1.7513482"
         id="feGaussianBlur10093" />
    </filter>
    <filter
       inkscape:collect="always"
       id="filter7109">
      <feGaussianBlur
         inkscape:collect="always"
         stdDeviation="1.3267795"
         id="feGaussianBlur7111" />
    </filter>
    <linearGradient
       id="linearGradient6103">
      <stop
         style="stop-color:#ffffff;stop-opacity:0;"
         offset="0"
         id="stop6105" />
      <stop
         style="stop-color:#ffffff;stop-opacity:1;"
         offset="1"
         id="stop6107" />
    </linearGradient>
    <radialGradient
       inkscape:collect="always"
       xlink:href="#linearGradient6103"
       id="radialGradient6119"
       cx="59.164608"
       cy="189.13264"
       fx="59.164608"
       fy="189.13264"
       r="81.611298"
       gradientTransform="matrix(-1.5076503,0.9470528,-1.1163895,-1.7772575,599.62917,454.41095)"
       gradientUnits="userSpaceOnUse" />
    <linearGradient
       id="linearGradient8131">
      <stop
         style="stop-color:#e6e6e6;stop-opacity:1;"
         offset="0"
         id="stop8133" />
      <stop
         style="stop-color:#000000;stop-opacity:1;"
         offset="1"
         id="stop8135" />
    </linearGradient>
    <linearGradient
       inkscape:collect="always"
       xlink:href="#linearGradient8131"
       id="linearGradient8137"
       x1="392.72748"
       y1="382.67395"
       x2="216.87935"
       y2="850.13684"
       gradientUnits="userSpaceOnUse"
       gradientTransform="matrix(0.6094799,0,0,0.7599513,196.37329,8.7666144)" />
    <linearGradient
       inkscape:collect="always"
       id="linearGradient8122">
      <stop
         style="stop-color:#ffffff;stop-opacity:1;"
         offset="0"
         id="stop8124" />
      <stop
         style="stop-color:#ffffff;stop-opacity:0;"
         offset="1"
         id="stop8126" />
    </linearGradient>
    <linearGradient
       inkscape:collect="always"
       xlink:href="#linearGradient8122"
       id="linearGradient8128"
       x1="575.90259"
       y1="573.17603"
       x2="341.43845"
       y2="765.14362"
       gradientUnits="userSpaceOnUse"
       gradientTransform="matrix(0.6210939,0,0,0.7599513,193.79437,8.7666144)" />
    <linearGradient
       inkscape:collect="always"
       id="linearGradient7145">
      <stop
         style="stop-color:#393a3a;stop-opacity:1"
         offset="0"
         id="stop7147" />
      <stop
         style="stop-color:#ffffff;stop-opacity:1"
         offset="1"
         id="stop7149" />
    </linearGradient>
    <linearGradient
       inkscape:collect="always"
       xlink:href="#linearGradient7145"
       id="linearGradient7151"
       x1="57.147488"
       y1="830.46069"
       x2="637.71234"
       y2="488.25012"
       gradientUnits="userSpaceOnUse"
       gradientTransform="matrix(0.6210939,0,0,0.7599513,193.79437,8.7666144)" />
    <linearGradient
       id="linearGradient6111">
      <stop
         style="stop-color:#000000;stop-opacity:1;"
         offset="0"
         id="stop6113" />
      <stop
         style="stop-color:#000000;stop-opacity:0;"
         offset="1"
         id="stop6115" />
    </linearGradient>
    <radialGradient
       inkscape:collect="always"
       xlink:href="#linearGradient6111"
       id="radialGradient6117"
       cx="-158.58435"
       cy="326.69659"
       fx="-158.58435"
       fy="326.69659"
       r="81.611298"
       gradientTransform="matrix(1.1307112,0.309407,-0.4195602,1.4272378,238.75638,-208.68046)"
       gradientUnits="userSpaceOnUse" />
    <filter
       inkscape:collect="always"
       id="filter6097">
      <feGaussianBlur
         inkscape:collect="always"
         stdDeviation="2.1837244"
         id="feGaussianBlur6099" />
    </filter>
    <filter
       inkscape:collect="always"
       id="filter4147">
      <feGaussianBlur
         inkscape:collect="always"
         stdDeviation="5.2592451"
         id="feGaussianBlur4149" />
    </filter>
    <linearGradient
       id="linearGradient7454">
      <stop
         style="stop-color:#ffffff;stop-opacity:0"
         offset="0"
         id="stop7456" />
      <stop
         style="stop-color:#ffffff;stop-opacity:1"
         offset="1"
         id="stop7458" />
    </linearGradient>
    <linearGradient
       id="linearGradient10381">
      <stop
         style="stop-color:#ffffff;stop-opacity:1"
         offset="0"
         id="stop10383" />
      <stop
         style="stop-color:#ffffff;stop-opacity:0"
         offset="1"
         id="stop10385" />
    </linearGradient>
    <linearGradient
       id="linearGradient8455">
      <stop
         style="stop-color:#ffffff;stop-opacity:0"
         offset="0"
         id="stop8457" />
      <stop
         style="stop-color:#5a5a5a;stop-opacity:0"
         offset="0.75177306"
         id="stop3239" />
      <stop
         style="stop-color:#000000;stop-opacity:0.66842103"
         offset="1"
         id="stop8459" />
    </linearGradient>
    <clipPath
       id="clipPath4479">
      <path
         d="M 483.63155,512.927 C 483.63155,629.50511 389.12633,724.01033 272.54822,724.01033 C 155.97011,724.01033 61.464888,629.50511 61.46489,512.927 C 61.464888,396.34889 155.97011,301.84367 272.54822,301.84367 C 389.12633,301.84367 483.63155,396.34889 483.63155,512.927 L 483.63155,512.927 z "
         transform="matrix(-0.6152756,0.7883122,0.7883122,0.6152756,251.75262,240.65104)"
         style="opacity:0.45384617;color:#000000;fill:url(#radialGradient4483);fill-opacity:1;fill-rule:evenodd;stroke:none;stroke-width:1;stroke-linecap:butt;stroke-linejoin:miter;marker:none;marker-start:none;marker-mid:none;marker-end:none;stroke-miterlimit:4;stroke-dasharray:none;stroke-dashoffset:0;stroke-opacity:1;visibility:visible;display:inline;overflow:visible;enable-background:accumulate"
         id="path4481" />
    </clipPath>
    <clipPath
       id="clipPath4485">
      <path
         d="M 483.63155,512.927 C 483.63155,629.50511 389.12633,724.01033 272.54822,724.01033 C 155.97011,724.01033 61.464888,629.50511 61.46489,512.927 C 61.464888,396.34889 155.97011,301.84367 272.54822,301.84367 C 389.12633,301.84367 483.63155,396.34889 483.63155,512.927 L 483.63155,512.927 z "
         transform="matrix(-0.9907046,0.136031,0.136031,0.9907046,703.95039,218.22871)"
         style="opacity:0.45384617;color:#000000;fill:url(#radialGradient4489);fill-opacity:1;fill-rule:evenodd;stroke:none;stroke-width:1;stroke-linecap:butt;stroke-linejoin:miter;marker:none;marker-start:none;marker-mid:none;marker-end:none;stroke-miterlimit:4;stroke-dasharray:none;stroke-dashoffset:0;stroke-opacity:1;visibility:visible;display:inline;overflow:visible;enable-background:accumulate"
         id="path4487" />
    </clipPath>
    <clipPath
       id="clipPath4491">
      <path
         d="M 483.63155,512.927 C 483.63155,629.50511 389.12633,724.01033 272.54822,724.01033 C 155.97011,724.01033 61.464888,629.50511 61.46489,512.927 C 61.464888,396.34889 155.97011,301.84367 272.54822,301.84367 C 389.12633,301.84367 483.63155,396.34889 483.63155,512.927 L 483.63155,512.927 z "
         transform="matrix(0.1323787,0.9911992,0.9911992,-0.1323787,-62.707318,586.85436)"
         style="opacity:0.45384617;color:#000000;fill:url(#radialGradient4495);fill-opacity:1;fill-rule:evenodd;stroke:none;stroke-width:1;stroke-linecap:butt;stroke-linejoin:miter;marker:none;marker-start:none;marker-mid:none;marker-end:none;stroke-miterlimit:4;stroke-dasharray:none;stroke-dashoffset:0;stroke-opacity:1;visibility:visible;display:inline;overflow:visible;enable-background:accumulate"
         id="path4493" />
    </clipPath>
    <clipPath
       id="clipPath4497">
      <path
         d="M 483.63155,512.927 C 483.63155,629.50511 389.12633,724.01033 272.54822,724.01033 C 155.97011,724.01033 61.464888,629.50511 61.46489,512.927 C 61.464888,396.34889 155.97011,301.84367 272.54822,301.84367 C 389.12633,301.84367 483.63155,396.34889 483.63155,512.927 L 483.63155,512.927 z "
         transform="matrix(0.7943298,0.6074868,0.6074868,-0.7943298,-38.268362,1048.1286)"
         style="opacity:0.45384617;color:#000000;fill:url(#radialGradient4501);fill-opacity:1;fill-rule:evenodd;stroke:none;stroke-width:1;stroke-linecap:butt;stroke-linejoin:miter;marker:none;marker-start:none;marker-mid:none;marker-end:none;stroke-miterlimit:4;stroke-dasharray:none;stroke-dashoffset:0;stroke-opacity:1;visibility:visible;display:inline;overflow:visible;enable-background:accumulate"
         id="path4499" />
    </clipPath>
    <clipPath
       id="clipPath4503">
      <path
         d="M 483.63155,512.927 C 483.63155,629.50511 389.12633,724.01033 272.54822,724.01033 C 155.97011,724.01033 61.464888,629.50511 61.46489,512.927 C 61.464888,396.34889 155.97011,301.84367 272.54822,301.84367 C 389.12633,301.84367 483.63155,396.34889 483.63155,512.927 L 483.63155,512.927 z "
         transform="matrix(0.9902077,-0.1396022,-0.1396022,-0.9902077,309.55671,1358.6655)"
         style="opacity:0.45384617;color:#000000;fill:url(#radialGradient4507);fill-opacity:1;fill-rule:evenodd;stroke:none;stroke-width:1;stroke-linecap:butt;stroke-linejoin:miter;marker:none;marker-start:none;marker-mid:none;marker-end:none;stroke-miterlimit:4;stroke-dasharray:none;stroke-dashoffset:0;stroke-opacity:1;visibility:visible;display:inline;overflow:visible;enable-background:accumulate"
         id="path4505" />
    </clipPath>
    <clipPath
       id="clipPath4509">
      <path
         d="M 483.63155,512.927 C 483.63155,629.50511 389.12633,724.01033 272.54822,724.01033 C 155.97011,724.01033 61.464888,629.50511 61.46489,512.927 C 61.464888,396.34889 155.97011,301.84367 272.54822,301.84367 C 389.12633,301.84367 483.63155,396.34889 483.63155,512.927 L 483.63155,512.927 z "
         transform="matrix(0.6048863,-0.7963118,-0.7963118,-0.6048863,768.45503,1331.9214)"
         style="opacity:0.45384617;color:#000000;fill:url(#radialGradient4513);fill-opacity:1;fill-rule:evenodd;stroke:none;stroke-width:1;stroke-linecap:butt;stroke-linejoin:miter;marker:none;marker-start:none;marker-mid:none;marker-end:none;stroke-miterlimit:4;stroke-dasharray:none;stroke-dashoffset:0;stroke-opacity:1;visibility:visible;display:inline;overflow:visible;enable-background:accumulate"
         id="path4511" />
    </clipPath>
    <clipPath
       id="clipPath4515">
      <path
         d="M 483.63155,512.927 C 483.63155,629.50511 389.12633,724.01033 272.54822,724.01033 C 155.97011,724.01033 61.464888,629.50511 61.46489,512.927 C 61.464888,396.34889 155.97011,301.84367 272.54822,301.84367 C 389.12633,301.84367 483.63155,396.34889 483.63155,512.927 L 483.63155,512.927 z "
         transform="matrix(-0.1289635,-0.9916494,-0.9916494,0.1289635,1075.0644,991.06551)"
         style="opacity:0.45384617;color:#000000;fill:url(#radialGradient4519);fill-opacity:1;fill-rule:evenodd;stroke:none;stroke-width:1;stroke-linecap:butt;stroke-linejoin:miter;marker:none;marker-start:none;marker-mid:none;marker-end:none;stroke-miterlimit:4;stroke-dasharray:none;stroke-dashoffset:0;stroke-opacity:1;visibility:visible;display:inline;overflow:visible;enable-background:accumulate"
         id="path4517" />
    </clipPath>
    <clipPath
       id="clipPath4521">
      <path
         d="M 483.63155,512.927 C 483.63155,629.50511 389.12633,724.01033 272.54822,724.01033 C 155.97011,724.01033 61.464888,629.50511 61.46489,512.927 C 61.464888,396.34889 155.97011,301.84367 272.54822,301.84367 C 389.12633,301.84367 483.63155,396.34889 483.63155,512.927 L 483.63155,512.927 z "
         transform="matrix(-0.7876974,-0.6160623,-0.6160623,0.7876974,1054.1097,533.7528)"
         style="opacity:0.45384617;color:#000000;fill:url(#radialGradient4525);fill-opacity:1;fill-rule:evenodd;stroke:none;stroke-width:1;stroke-linecap:butt;stroke-linejoin:miter;marker:none;marker-start:none;marker-mid:none;marker-end:none;stroke-miterlimit:4;stroke-dasharray:none;stroke-dashoffset:0;stroke-opacity:1;visibility:visible;display:inline;overflow:visible;enable-background:accumulate"
         id="path4523" />
    </clipPath>
    <linearGradient
       id="linearGradient4555">
      <stop
         style="stop-color:#3d97c5;stop-opacity:1;"
         offset="0"
         id="stop4557" />
      <stop
         id="stop4563"
         offset="0.59090906"
         style="stop-color:#7ebad8;stop-opacity:1;" />
      <stop
         style="stop-color:#286280;stop-opacity:1;"
         offset="1"
         id="stop4565" />
    </linearGradient>
    <linearGradient
       id="linearGradient3645">
      <stop
         style="stop-color:#12a0ff;stop-opacity:1;"
         offset="0"
         id="stop3647" />
      <stop
         id="stop3653"
         offset="0.59090906"
         style="stop-color:#39b0fd;stop-opacity:0.49411765;" />
      <stop
         style="stop-color:white;stop-opacity:1;"
         offset="1"
         id="stop3655" />
    </linearGradient>
    <radialGradient
       inkscape:collect="always"
       xlink:href="#linearGradient3645"
       id="radialGradient3666"
       gradientUnits="userSpaceOnUse"
       gradientTransform="matrix(-2.135106e-3,-1.043226,1.057577,-2.208901e-3,-464.3804,1421.915)"
       cx="370"
       cy="639.14789"
       fx="370"
       fy="639.14789"
       r="106.07143" />
    <linearGradient
       inkscape:collect="always"
       xlink:href="#linearGradient4555"
       id="linearGradient6343"
       x1="115.42858"
       y1="426.36218"
       x2="328.57159"
       y2="637.3645"
       gradientUnits="userSpaceOnUse"
       gradientTransform="matrix(0.232387,0,0,0.234758,134.4227,884.8828)" />
    <radialGradient
       inkscape:collect="always"
       xlink:href="#linearGradient3645"
       id="radialGradient7232"
       gradientUnits="userSpaceOnUse"
       gradientTransform="matrix(-3.419922e-3,-1.663764,1.693982,-3.522813e-3,-921.284,624.8444)"
       cx="370"
       cy="639.14789"
       fx="370"
       fy="639.14789"
       r="106.07143" />
    <linearGradient
       inkscape:collect="always"
       xlink:href="#linearGradient4555"
       id="linearGradient7234"
       gradientUnits="userSpaceOnUse"
       x1="115.42858"
       y1="426.36218"
       x2="328.57159"
       y2="637.3645"
       gradientTransform="matrix(0.372227,0,0,0.374399,37.8524,-231.6285)" />
    <radialGradient
       inkscape:collect="always"
       xlink:href="#linearGradient3645"
       id="radialGradient7238"
       gradientUnits="userSpaceOnUse"
       gradientTransform="matrix(-3.419922e-3,-1.663764,1.693982,-3.522813e-3,-842.3231,625.1941)"
       cx="370"
       cy="639.14789"
       fx="370"
       fy="639.14789"
       r="106.07143" />
    <linearGradient
       inkscape:collect="always"
       xlink:href="#linearGradient4555"
       id="linearGradient7240"
       gradientUnits="userSpaceOnUse"
       x1="115.42858"
       y1="426.36218"
       x2="328.57159"
       y2="637.3645"
       gradientTransform="matrix(0.372227,0,0,0.374399,116.8137,-231.2788)" />
    <radialGradient
       inkscape:collect="always"
       xlink:href="#linearGradient3645"
       id="radialGradient7244"
       gradientUnits="userSpaceOnUse"
       gradientTransform="matrix(-3.419922e-3,-1.663764,1.693982,-3.522813e-3,-763.3544,624.8365)"
       cx="370"
       cy="639.14789"
       fx="370"
       fy="639.14789"
       r="106.07143" />
    <linearGradient
       inkscape:collect="always"
       xlink:href="#linearGradient4555"
       id="linearGradient7246"
       gradientUnits="userSpaceOnUse"
       x1="115.42858"
       y1="426.36218"
       x2="328.57159"
       y2="637.3645"
       gradientTransform="matrix(0.372227,0,0,0.374399,195.7825,-231.6361)" />
    <radialGradient
       inkscape:collect="always"
       xlink:href="#linearGradient3645"
       id="radialGradient7250"
       gradientUnits="userSpaceOnUse"
       gradientTransform="matrix(-3.419922e-3,-1.663764,1.693982,-3.522813e-3,-921.284,546.179)"
       cx="370"
       cy="639.14789"
       fx="370"
       fy="639.14789"
       r="106.07143" />
    <linearGradient
       inkscape:collect="always"
       xlink:href="#linearGradient4555"
       id="linearGradient7252"
       gradientUnits="userSpaceOnUse"
       x1="115.42858"
       y1="426.36218"
       x2="328.57159"
       y2="637.3645"
       gradientTransform="matrix(0.372227,0,0,0.374399,37.85238,-310.2941)" />
    <radialGradient
       inkscape:collect="always"
       xlink:href="#linearGradient3645"
       id="radialGradient7256"
       gradientUnits="userSpaceOnUse"
       gradientTransform="matrix(-3.419922e-3,-1.663764,1.693982,-3.522813e-3,-842.3228,546.179)"
       cx="370"
       cy="639.14789"
       fx="370"
       fy="639.14789"
       r="106.07143" />
    <linearGradient
       inkscape:collect="always"
       xlink:href="#linearGradient4555"
       id="linearGradient7258"
       gradientUnits="userSpaceOnUse"
       x1="115.42858"
       y1="426.36218"
       x2="328.57159"
       y2="637.3645"
       gradientTransform="matrix(0.372227,0,0,0.374399,116.8137,-310.2941)" />
    <radialGradient
       inkscape:collect="always"
       xlink:href="#linearGradient3645"
       id="radialGradient7262"
       gradientUnits="userSpaceOnUse"
       gradientTransform="matrix(-3.419922e-3,-1.663764,1.693982,-3.522813e-3,-762.6096,546.1787)"
       cx="370"
       cy="639.14789"
       fx="370"
       fy="639.14789"
       r="106.07143" />
    <linearGradient
       inkscape:collect="always"
       xlink:href="#linearGradient4555"
       id="linearGradient7264"
       gradientUnits="userSpaceOnUse"
       x1="115.42858"
       y1="426.36218"
       x2="328.57159"
       y2="637.3645"
       gradientTransform="matrix(0.372227,0,0,0.374399,196.5269,-310.2941)" />
    <radialGradient
       inkscape:collect="always"
       xlink:href="#linearGradient8455"
       id="radialGradient3975"
       gradientUnits="userSpaceOnUse"
       gradientTransform="matrix(-6.466211e-2,6.651669e-2,-6.341654e-2,-6.16478e-2,138.9827,1015.141)"
       cx="227.16437"
       cy="512.27356"
       fx="227.16437"
       fy="512.27356"
       r="211.08333" />
    <linearGradient
       inkscape:collect="always"
       xlink:href="#linearGradient10381"
       id="linearGradient3977"
       gradientUnits="userSpaceOnUse"
       gradientTransform="matrix(0.150625,0,0,0.150625,304.2974,257.2424)"
       x1="470.62106"
       y1="418.56094"
       x2="316.90063"
       y2="541.53729" />
    <linearGradient
       inkscape:collect="always"
       xlink:href="#linearGradient7454"
       id="linearGradient3979"
       gradientUnits="userSpaceOnUse"
       gradientTransform="matrix(-0.163634,0.217792,-0.163072,-0.128585,488.7473,349.7561)"
       x1="266.67841"
       y1="628.37622"
       x2="260.95886"
       y2="683.94171" />
    <linearGradient
       inkscape:collect="always"
       xlink:href="#linearGradient7454"
       id="linearGradient3981"
       gradientUnits="userSpaceOnUse"
       gradientTransform="matrix(0.150625,0,0,0.150625,304.2974,257.2424)"
       x1="383.61417"
       y1="685.33911"
       x2="393.24667"
       y2="752.98993" />
  </defs>
  <sodipodi:namedview
     id="base"
     pagecolor="#ffffff"
     bordercolor="#666666"
     borderopacity="1.0"
     gridtolerance="10000"
     guidetolerance="10"
     objecttolerance="10"
     inkscape:pageopacity="0.0"
     inkscape:pageshadow="2"
     inkscape:zoom="0.97127244"
     inkscape:cx="263.75163"
     inkscape:cy="58.302001"
     inkscape:document-units="px"
     inkscape:current-layer="layer1"
     inkscape:window-width="910"
     inkscape:window-height="653"
     inkscape:window-x="40"
     inkscape:window-y="115" />
  <metadata
     id="metadata7">
    <rdf:RDF>
      <cc:Work
         rdf:about="">
        <dc:format>image/svg+xml</dc:format>
        <dc:type
           rdf:resource="http://purl.org/dc/dcmitype/StillImage" />
      </cc:Work>
    </rdf:RDF>
  </metadata>
  <g
     inkscape:label="Layer 1"
     inkscape:groupmode="layer"
     id="layer1">
    <g
       transform="matrix(4.978177e-2,4.9781771e-2,-3.4045379e-2,3.4045377e-2,17.36565,998.85715)"
       id="g5424"
       inkscape:export-filename="/home/gloomy/Develop/OSSO/lines-0.1-2/paint.png"
       inkscape:export-xdpi="90"
       inkscape:export-ydpi="90">
      <path
         sodipodi:nodetypes="cczczccc"
         id="path2160"
         d="M 276.28706,471.65358 L 277.28095,401.12034 C 297.74555,400.15166 339.98418,393.52826 330.95089,342.74801 C 321.91759,291.96776 325.64157,44.932859 372.69418,46.021943 C 417.7606,46.359272 424.73248,286.36303 418.41302,343.96409 C 411.97409,402.65417 445.78352,396.52435 469.1013,397.47207 L 469.1013,471.65358 L 276.28706,471.65358 z "
         style="fill:#a02c2c;fill-rule:evenodd;stroke:none;stroke-width:1px;stroke-linecap:butt;stroke-linejoin:miter;stroke-opacity:1" />
      <path
         transform="matrix(0.6210939,0,0,0.7599513,193.79437,8.7666144)"
         sodipodi:nodetypes="csccccc"
         id="path3156"
         d="M 441.95707,509.90721 C 441.94668,516.43436 432.10608,526.11627 416.01519,537.99639 C 391.98801,555.73597 341.63826,527.19796 342.77199,487.88235 C 337.94702,349.27482 334.53756,119.30812 290.26224,47.383878 C 264.97977,49.041125 365.13726,-15.838351 366.10966,435.3726 C 359.28873,464.49273 369.5884,497.13388 393.82314,506.84421 L 441.95707,509.90721 z "
         style="opacity:0.66000001;fill:#f4d7d7;fill-rule:evenodd;stroke:none;stroke-width:1px;stroke-linecap:butt;stroke-linejoin:miter;stroke-opacity:1;filter:url(#filter4147)" />
      <path
         transform="matrix(0.6210939,0,0,0.7599513,193.79437,8.7666144)"
         style="fill:#782121;fill-rule:evenodd;stroke:none;stroke-width:0.85465473px;stroke-linecap:butt;stroke-linejoin:miter;stroke-opacity:1;filter:url(#filter6097)"
         d="M 158.33824,601.17239 L 158.2096,534.93677 C 179.31242,533.19925 248.27884,519.92145 237.71223,457.96924 C 227.14563,396.01703 221.19431,75.303777 288.83448,76.154394 C 350.08361,78.131254 351.90603,390.94522 345.33799,460.74988 C 338.64036,531.93195 405.34044,539.07433 419.3307,538.76751 L 419.3307,601.17239 L 158.33824,601.17239 z "
         id="path2162"
         sodipodi:nodetypes="cczczccc" />
      <path
         transform="matrix(0.2838115,0,0,0.3599303,409.02708,58.391693)"
         d="M -46.406418 264.25311 A 81.611298 80.811188 0 1 1  -209.62901,264.25311 A 81.611298 80.811188 0 1 1  -46.406418 264.25311 z"
         sodipodi:ry="80.811188"
         sodipodi:rx="81.611298"
         sodipodi:cy="264.25311"
         sodipodi:cx="-128.01772"
         id="path3136"
         style="opacity:0.23888891;fill:url(#radialGradient6117);fill-opacity:1;stroke:none;stroke-width:8.10000038;stroke-linecap:round;stroke-linejoin:round;stroke-miterlimit:4;stroke-dasharray:none;stroke-opacity:1"
         sodipodi:type="arc" />
      <path
         sodipodi:type="arc"
         style="opacity:1;fill:#ffffff;fill-opacity:1;stroke:none;stroke-width:8.10000038;stroke-linecap:round;stroke-linejoin:round;stroke-miterlimit:4;stroke-dasharray:none;stroke-opacity:1"
         id="path3138"
         sodipodi:cx="-128.01772"
         sodipodi:cy="264.25311"
         sodipodi:rx="81.611298"
         sodipodi:ry="80.811188"
         d="M -46.406418 264.25311 A 81.611298 80.811188 0 1 1  -209.62901,264.25311 A 81.611298 80.811188 0 1 1  -46.406418 264.25311 z"
         transform="matrix(0.1826747,0,0,0.2332525,396.07977,92.008283)" />
      <rect
         y="458.52899"
         x="270.39792"
         height="159.08257"
         width="203.1048"
         id="rect3140"
         style="opacity:1;fill:url(#linearGradient7151);fill-opacity:1;stroke:none;stroke-width:8.10000038;stroke-linecap:round;stroke-linejoin:round;stroke-miterlimit:4;stroke-dasharray:none;stroke-opacity:1" />
      <rect
         y="458.52899"
         x="458.04147"
         height="159.08257"
         width="16.164051"
         id="rect3142"
         style="opacity:0.23888891;fill:url(#linearGradient8128);fill-opacity:1;stroke:none;stroke-width:8.10000038;stroke-linecap:round;stroke-linejoin:round;stroke-miterlimit:4;stroke-dasharray:none;stroke-opacity:1" />
      <rect
         y="457.66907"
         x="270.39792"
         height="159.94247"
         width="15.351469"
         id="rect3144"
         style="opacity:0.23888891;fill:#000000;fill-opacity:1;stroke:none;stroke-width:8.10000038;stroke-linecap:round;stroke-linejoin:round;stroke-miterlimit:4;stroke-dasharray:none;stroke-opacity:1" />
      <path
         id="rect3146"
         d="M 269.81563,486.03978 C 268.4784,486.03978 267.4158,487.3885 267.4158,489.05584 C 267.4158,490.72319 268.4784,492.07188 269.81563,492.07189 L 473.9533,492.07189 C 475.29052,492.07189 476.37217,490.72321 476.37217,489.05584 C 476.37217,487.38848 475.29052,486.03978 473.9533,486.03978 L 269.81563,486.03978 z M 269.81563,496.10914 C 268.4784,496.10914 267.4158,497.45785 267.4158,499.12519 C 267.4158,500.79255 268.4784,502.14123 269.81563,502.14125 L 473.9533,502.14125 C 475.29052,502.14125 476.37217,500.79256 476.37217,499.12519 C 476.37217,497.45784 475.29052,496.10914 473.9533,496.10914 L 269.81563,496.10914 z M 269.81563,506.55847 C 268.4784,506.55847 267.4158,507.90718 267.4158,509.57452 C 267.4158,511.24188 268.4784,512.59056 269.81563,512.59058 L 473.9533,512.59058 C 475.29052,512.59058 476.37217,511.24189 476.37217,509.57452 C 476.37217,507.90717 475.29052,506.55847 473.9533,506.55847 L 269.81563,506.55847 z "
         style="opacity:1;fill:url(#linearGradient8137);fill-opacity:1;stroke:none;stroke-width:8.10000038;stroke-linecap:round;stroke-linejoin:round;stroke-miterlimit:4;stroke-dasharray:none;stroke-opacity:1" />
      <path
         transform="matrix(0.6210939,0,0,0.7599513,193.79437,8.7666144)"
         id="path6101"
         d="M 261.84375,163.25 C 254.72312,170.22176 250.28125,180.04768 250.28125,190.9375 C 250.28125,212.06476 266.97698,229.1875 287.5625,229.1875 C 302.07352,229.1875 314.64944,220.67877 320.8125,208.25 C 314.17053,214.95359 305.1814,219.09375 295.28125,219.09375 C 274.85831,219.09375 258.28125,201.56244 258.28125,179.96875 C 258.28125,173.99005 259.57264,168.31933 261.84375,163.25 z "
         style="opacity:0.86039997;fill:url(#radialGradient6119);fill-opacity:1;stroke:none;stroke-width:8.10000038;stroke-linecap:round;stroke-linejoin:round;stroke-miterlimit:4;stroke-dasharray:none;stroke-opacity:1;filter:url(#filter7109)" />
      <path
         transform="matrix(0.6210939,0,0,0.7599513,193.79437,8.7666144)"
         sodipodi:nodetypes="ccccc"
         id="path9108"
         d="M 146.66927,627.30414 L 425.86614,632.15271 L 454.09956,634.35496 C 456.29385,631.84027 453.32667,627.78053 450.51304,627.70818 L 146.66927,627.30414 z "
         style="opacity:0.61111109;fill:#ffffff;fill-opacity:1;fill-rule:evenodd;stroke:none;stroke-width:1px;stroke-linecap:butt;stroke-linejoin:miter;stroke-opacity:1;filter:url(#filter10091)" />
      <path
         transform="matrix(0.6210939,0,0,0.7599513,193.79437,8.7666144)"
         style="opacity:0.61111109;fill:#ffffff;fill-opacity:1;fill-rule:evenodd;stroke:none;stroke-width:1px;stroke-linecap:butt;stroke-linejoin:miter;stroke-opacity:1;filter:url(#filter10091)"
         d="M 147.36212,640.27548 L 426.55899,645.12405 L 454.79241,647.3263 C 456.9867,644.81161 454.01952,640.75187 451.20589,640.67952 L 147.36212,640.27548 z "
         id="path10095"
         sodipodi:nodetypes="ccccc" />
      <path
         transform="matrix(0.6210939,0,0,0.7599513,193.79437,8.7666144)"
         sodipodi:nodetypes="ccccc"
         id="path10097"
         d="M 149.44068,653.43967 L 428.63755,658.28824 L 456.87097,660.49049 C 459.06526,657.9758 456.09808,653.91606 453.28445,653.84371 L 149.44068,653.43967 z "
         style="opacity:0.61111109;fill:#ffffff;fill-opacity:1;fill-rule:evenodd;stroke:none;stroke-width:1px;stroke-linecap:butt;stroke-linejoin:miter;stroke-opacity:1;filter:url(#filter10091)" />
      <path
         sodipodi:nodetypes="ccccc"
         id="path10099"
         d="M 278.13833,402.02641 L 293.63007,416.76936 L 293.19975,457.83901 L 277.27767,457.31247 L 278.13833,402.02641 z "
         style="fill:url(#linearGradient10107);fill-opacity:1;fill-rule:evenodd;stroke:none;stroke-width:1px;stroke-linecap:butt;stroke-linejoin:miter;stroke-opacity:1" />
      <path
         sodipodi:nodetypes="csccscc"
         id="path10109"
         d="M 272.47179,615.82254 C 271.04617,617.19823 271.42228,619.87386 271.08195,621.81876 C 263.53316,664.95839 259.88107,725.54353 271.48494,829.06944 L 475.81379,828.20218 C 481.03304,776.76577 486.87973,712.60407 473.90105,623.25515 C 473.58838,621.10268 472.93309,618.93612 470.62374,616.75532 L 272.47179,615.82254 z "
         style="fill:url(#linearGradient10119);fill-opacity:1;fill-rule:evenodd;stroke:none;stroke-width:1px;stroke-linecap:butt;stroke-linejoin:miter;stroke-opacity:1" />
      <path
         style="fill:#6c5353;fill-opacity:1;fill-rule:evenodd;stroke:none;stroke-width:0.98169541px;stroke-linecap:butt;stroke-linejoin:miter;stroke-opacity:1;filter:url(#filter14051)"
         d="M 290.46779,630.52938 C 295.62016,649.27476 277.89012,716.33915 308.4971,825.67228 L 339.26681,825.7065 C 332.74923,770.72664 338.97568,750.82967 340.72933,718.61955 C 342.0274,752.62577 334.18975,782.48971 355.84221,825.72495 L 385.58097,825.75804 C 397.16393,778.48029 391.99233,737.25623 394.35673,693.30931 C 400.09295,734.63561 406.58266,774.80028 406.05645,825.78081 L 448.55651,825.82809 C 464.17218,669.76187 454.38686,691.19625 448.58141,620.25844 L 404.76078,620.07571 C 412.79829,640.28051 404.82599,655.89692 411.64648,677.74043 C 402.84204,654.13482 411.61179,630.72399 399.84334,620.03516 L 335.85458,619.74202 C 339.45296,635.63973 336.66546,655.59564 334.39179,673.75646 C 334.08442,655.28945 337.59507,632.40805 331.46625,620.67187 L 305.39937,620.36888 C 325.50845,619.4176 286.47987,616.02052 290.46779,630.52938 z "
         id="path10145"
         sodipodi:nodetypes="cccccccccccccccccs" />
      <path
         sodipodi:nodetypes="ccscccccc"
         id="path12087"
         d="M 474.03653,624.19928 C 469.07159,622.70533 464.05274,620.88787 459.28013,620.54791 C 458.22378,619.2803 280.55639,610.63427 286.60381,627.68134 C 297.45998,658.28381 267.28924,722.20341 307.65445,826.47888 L 271.04328,828.84161 C 259.27269,739.38816 268.8082,676.53714 271.04328,618.43075 L 272.35425,615.80881 L 470.66065,617.11978 C 472.08949,619.10252 473.74213,619.56949 474.03653,624.19928 z "
         style="opacity:0.27222224;fill:#000000;fill-opacity:1;fill-rule:evenodd;stroke:none;stroke-width:1px;stroke-linecap:butt;stroke-linejoin:miter;stroke-opacity:1;filter:url(#filter13078)" />
      <path
         sodipodi:nodetypes="csccc"
         id="path14055"
         d="M 474.6996,827.74379 C 474.66843,818.60753 450.02969,830.9876 450.8981,822.286 C 461.54994,715.09802 453.1837,642.1607 450.14617,619.94904 C 455.90561,621.01601 468.03076,617.59818 473.79021,624.04128 C 484.49995,688.64955 484.43314,757.1228 474.6996,827.74379 z "
         style="opacity:0.33000004;fill:url(#linearGradient15056);fill-opacity:1;fill-rule:evenodd;stroke:none;stroke-width:1px;stroke-linecap:butt;stroke-linejoin:miter;stroke-opacity:1;filter:url(#filter15046)" />
      <path
         sodipodi:nodetypes="cccc"
         id="path15058"
         d="M 393.76423,695.4281 C 395.53225,738.77551 401.91901,782.12291 396.03769,825.47032 L 406.04094,825.92502 C 403.81157,781.0289 400.79165,736.72568 393.76423,695.4281 z "
         style="opacity:0.31666667;fill:#000000;fill-opacity:1;fill-rule:evenodd;stroke:none;stroke-width:1px;stroke-linecap:butt;stroke-linejoin:miter;stroke-opacity:1;filter:url(#filter16037)" />
      <path
         sodipodi:nodetypes="cscccssssccccc"
         id="path16041"
         d="M 265.68153,769.44073 C 287.88891,770.25277 311.43204,764.3284 333.951,773.13647 C 337.0229,774.33801 337.11413,771.98217 337.70571,770.91003 L 339.37744,758.11564 L 340.44794,775.15086 C 357.69217,781.00538 374.9364,783.542 392.18063,784.59215 C 393.43921,784.66879 396.48329,783.59561 396.59191,781.71795 C 396.88214,776.70049 396.59445,766.98639 397.00517,763.61725 C 398.69592,749.74782 400.36809,785.12455 402.84992,785.17412 C 427.39561,785.66434 475.41883,774.60982 480.75564,786.10573 C 479.33289,800.51335 480.01581,830.71354 476.487,829.32571 C 386.96297,828.29075 313.34755,836.32558 271.05867,829.32571 C 263.10984,820.07027 266.5216,795.66739 264.30139,778.7738 C 263.69272,775.02155 264.23026,771.95702 265.68153,769.44073 z "
         style="fill:#000080;fill-rule:evenodd;stroke:none;stroke-width:1px;stroke-linecap:butt;stroke-linejoin:miter;stroke-opacity:1" />
      <path
         sodipodi:nodetypes="cccccc"
         id="path17012"
         d="M 465.4963,824.71899 L 475.70621,824.71899 C 479.64371,811.98811 478.11503,799.25724 478.35323,786.52636 C 471.32828,778.60046 447.63771,785.82514 430.70698,786.9045 C 443.82213,789.29329 462.9423,785.67706 470.03404,794.08926 C 470.05125,804.68162 472.97547,816.00073 465.4963,824.71899 z "
         style="fill:#ffffff;fill-rule:evenodd;stroke:none;stroke-width:1px;stroke-linecap:butt;stroke-linejoin:miter;stroke-opacity:1;filter:url(#filter19949)" />
      <path
         id="path17014"
         d="M 286.63379,771.77871 C 286.75984,771.77871 286.88589,771.77871 286.63379,771.77871 z "
         style="fill:none;fill-rule:evenodd;stroke:#000000;stroke-width:1px;stroke-linecap:butt;stroke-linejoin:miter;stroke-opacity:1" />
      <path
         sodipodi:nodetypes="ccc"
         id="path17016"
         d="M 357.72502,784.25749 C 349.07777,784.11454 325.8877,779.72993 293.06225,772.535 C 313.35555,772.97488 333.50891,773.02989 357.72502,784.25749 z "
         style="fill:#ffffff;fill-rule:evenodd;stroke:none;stroke-width:1px;stroke-linecap:butt;stroke-linejoin:miter;stroke-opacity:1;filter:url(#filter21963)" />
      <path
         sodipodi:nodetypes="cccc"
         id="path17018"
         d="M 268.48284,810.72763 C 269.8222,799.77562 298.51881,822.29171 476.08436,827.74415 C 407.87758,828.21756 327.687,832.9709 272.26429,828.87858 C 264.45858,817.91934 269.11956,816.31012 268.48284,810.72763 z "
         style="fill:url(#linearGradient18966);fill-opacity:1;fill-rule:evenodd;stroke:none;stroke-width:1px;stroke-linecap:butt;stroke-linejoin:miter;stroke-opacity:1;filter:url(#filter20930)" />
    </g>
    <g
       id="g3968"
       transform="matrix(0.909092,0,0,0.909098,-64.519695,120.66155)"
       inkscape:export-xdpi="90"
       inkscape:export-ydpi="90"
       inkscape:export-filename="/home/gloomy/Develop/OSSO/lines-0.1-2/paint.png">
      <path
         inkscape:export-ydpi="348.59698"
         inkscape:export-xdpi="348.59698"
         inkscape:export-filename="D:\Bilder\inkscape\orb.png"
         id="path3197"
         style="opacity:0.45384617;color:#000000;fill:url(#radialGradient3975);fill-opacity:1;fill-rule:evenodd;stroke:none;stroke-width:1;stroke-linecap:butt;stroke-linejoin:miter;marker:none;marker-start:none;marker-mid:none;marker-end:none;stroke-miterlimit:4;stroke-dasharray:none;stroke-dashoffset:0;stroke-opacity:1;visibility:visible;display:inline;overflow:visible"
         d="M 114.97153,1002.8629 C 114.97153,1015.0131 105.1218,1024.8627 92.97155,1024.8627 C 80.8213,1024.8627 70.971579,1015.0131 70.971579,1002.8629 C 70.971579,990.7127 80.8213,980.86304 92.97155,980.86304 C 105.1218,980.86304 114.97153,990.7127 114.97153,1002.8629 z " />
      <g
         inkscape:export-ydpi="348.59698"
         inkscape:export-xdpi="348.59698"
         inkscape:export-filename="D:\Bilder\inkscape\orb.png"
         transform="matrix(0.691944,0,0,0.691939,-154.7086,768.2904)"
         id="g42639">
        <path
           d="M 366.61973,310.78903 C 363.41292,312.82494 360.94536,315.31275 359.14123,318.20263 C 360.81273,318.36495 368.53135,319.4463 373.34414,325.88972 C 375.46834,323.87885 377.62037,321.77665 379.85402,319.43298 L 380.92611,320.26284 C 376.10794,314.34642 369.5115,310.25519 366.61973,310.78903 z M 358.72917,318.88561 C 356.84744,322.15329 355.77549,325.9104 355.41541,330.10446 C 364.71664,334.95161 368.31471,335.95121 369.82626,348.65924 C 373.17098,345.73125 376.03035,341.99268 379.61055,339.4566 L 378.31196,339.58141 C 378.31196,339.58141 378.28099,339.0495 377.6271,337.32999 C 376.9732,335.61048 375.70289,332.78163 373.24412,328.42367 C 373.1817,328.31304 373.11015,328.21904 373.04603,328.11113 C 370.20683,330.74902 367.43534,333.18121 364.69353,335.53893 L 363.681,334.56815 C 366.50647,332.13849 369.35547,329.62479 372.27162,326.90514 C 367.26597,319.93194 358.66567,319.53719 358.66567,319.53719 L 358.72917,318.88561 z M 380.96875,320.31095 C 378.62531,322.7694 376.36574,324.9728 374.14235,327.06959 C 374.28936,327.30374 374.44676,327.52118 374.5859,327.7678 C 377.06783,332.1668 378.36509,335.04401 379.0483,336.84059 C 379.60811,338.31268 379.75524,339.08529 379.79204,339.32717 C 381.676,338.0235 385.22842,336.1806 387.69246,335.84235 C 386.67052,329.57911 384.84295,325.08637 380.96875,320.31095 z "
           style="opacity:0.65384617;color:#000000;fill:url(#linearGradient3977);fill-opacity:1;fill-rule:evenodd;stroke:none;stroke-width:1;stroke-linecap:butt;stroke-linejoin:miter;marker:none;marker-start:none;marker-mid:none;marker-end:none;stroke-miterlimit:4;stroke-dashoffset:0;stroke-opacity:1;visibility:visible;display:inline;overflow:visible"
           id="path3199" />
        <path
           d="M 359.69699,309.64592 C 359.69699,309.64592 345.03135,309.5488 336.7817,319.36526 C 327.65946,330.22005 328.76118,342.48867 328.76118,342.48867 L 328.57044,342.31126 C 337.16842,324.08233 351.26436,317.4337 359.69699,309.64592 z "
           style="opacity:0.82692309;color:#000000;fill:url(#linearGradient3979);fill-opacity:1;fill-rule:evenodd;stroke:none;stroke-width:1px;stroke-linecap:butt;stroke-linejoin:miter;marker:none;marker-start:none;marker-mid:none;marker-end:none;stroke-miterlimit:4;stroke-dasharray:none;stroke-dashoffset:0;stroke-opacity:1;visibility:visible;display:inline;overflow:visible"
           id="path3201" />
        <path
           d="M 340.0204,363.43181 C 340.0204,363.43181 352.08397,371.77211 364.42956,368.30713 C 378.08099,364.47565 384.08062,353.71753 384.08062,353.71753 L 384.13831,353.97155 C 366.76678,364.19159 353.43604,364.35739 340.0204,363.43181 z "
           style="opacity:0.82692309;color:#000000;fill:url(#linearGradient3981);fill-opacity:1;fill-rule:evenodd;stroke:none;stroke-width:1px;stroke-linecap:butt;stroke-linejoin:miter;marker:none;marker-start:none;marker-mid:none;marker-end:none;stroke-miterlimit:4;stroke-dasharray:none;stroke-dashoffset:0;stroke-opacity:1;visibility:visible;display:inline;overflow:visible"
           id="path3203" />
      </g>
    </g>
  </g>
</svg>
